Product Description
In their new home of Fixham Harbour, Bob and the team set to work tackling exciting new building jobs, and making new friends. But when Spud and Scrambler learn of an amazing treasure, the pirate Brickbeard's Golden Hammer, hidden somewhere in Fixham they decide that building can wait, and they must find the hammer to give to Bob. Help them follow the clues and find the Golden Hammer in this all-new special !


Synopsis
Everyone's favourite fix-it man Bob the Builder sets to work on some exciting building projects in his new home of Fixham Harbour. Spud and Scrambler, however, are more interested in hunting for treasure after they learn of the pirate Blackbeard's Golden Hammer. Will the pair put all the clues together and track down the hidden bounty? Find out in this great new adventure.

Format : AVI
Format/Info : Audio Video Interleave
File size : 803 MiB
Duration : 59mn 46s
Overall bit rate : 1 879 Kbps

Video
ID : 0
Format : MPEG-4 Visual
Format profile : Simple@L3
Format settings, BVOP : No
Format settings, QPel : No
Format settings, GMC : No warppoints
Format settings, Matrix : Default (H.263)
Codec ID : XVID
Codec ID/Hint : XviD
Duration : 59mn 46s
Bit rate : 1 676 Kbps
Width : 702 pixels
Height : 576 pixels
Display aspect ratio : 16:9
Frame rate : 25.000 fps
Resolution : 8 bits
Colorimetry : 4:2:0
Scan type : Progressive
Bits/(Pixel*Frame) : 0.166
Stream size : 717 MiB (89%)
Writing library : XviD 1.1.2 (UTC 2006-11-01)

Audio
ID : 1
Format : AC-3
Format/Info : Audio Coding 3
Codec ID : 2000
Duration : 59mn 46s
Bit rate mode : Constant
Bit rate : 192 Kbps
Channel(s) : 2 channels
Channel positions : L R
Sampling rate : 48.0 KHz
Stream size : 82.1 MiB (10%)
Alignment : Aligned on interleaves
Interleave, duration : 32 ms (0.80 video frame)
Interleave, preload duration : 512 ms